<svg id="Capa_1" data-name="Capa 1" xmlns="http://www.w3.org/2000/svg" viewBox="0 0 20 16"><rect x="12" y="10" width="5" height="2"/><rect x="12" y="7" width="5" height="2"/><rect x="12" y="4" width="5" height="2"/><rect x="3" y="10" width="5" height="2"/><rect x="3" y="7" width="5" height="2"/><rect x="3" y="4" width="5" height="2"/><path d="M11,18V6H4V18ZM4,4H20a2,2,0,0,1,2,2V18a2,2,0,0,1-2,2H4a1.93,1.93,0,0,1-1.41-.59A1.93,1.93,0,0,1,2,18V6a1.93,1.93,0,0,1,.59-1.41A1.93,1.93,0,0,1,4,4Zm9,2V18h7V6Z" transform="translate(-2 -4)"/></svg>